<svg width="230" height="20" viewBox="0 0 230 20" fill="none" xmlns="http://www.w3.org/2000/svg">
<path d="M155.08 9.93945L154.213 9.7168L154.641 5.46875H159.018V6.4707H155.561L155.303 8.79102C155.459 8.70117 155.656 8.61719 155.895 8.53906C156.137 8.46094 156.414 8.42188 156.727 8.42188C157.121 8.42188 157.475 8.49023 157.787 8.62695C158.1 8.75977 158.365 8.95117 158.584 9.20117C158.807 9.45117 158.977 9.75195 159.094 10.1035C159.211 10.4551 159.27 10.8477 159.27 11.2812C159.27 11.6914 159.213 12.0684 159.1 12.4121C158.99 12.7559 158.824 13.0566 158.602 13.3145C158.379 13.5684 158.098 13.7656 157.758 13.9062C157.422 14.0469 157.025 14.1172 156.568 14.1172C156.225 14.1172 155.898 14.0703 155.59 13.9766C155.285 13.8789 155.012 13.7324 154.77 13.5371C154.531 13.3379 154.336 13.0918 154.184 12.7988C154.035 12.502 153.941 12.1543 153.902 11.7559H154.934C154.98 12.0762 155.074 12.3457 155.215 12.5645C155.355 12.7832 155.539 12.9492 155.766 13.0625C155.996 13.1719 156.264 13.2266 156.568 13.2266C156.826 13.2266 157.055 13.1816 157.254 13.0918C157.453 13.002 157.621 12.873 157.758 12.7051C157.895 12.5371 157.998 12.334 158.068 12.0957C158.143 11.8574 158.18 11.5898 158.18 11.293C158.18 11.0234 158.143 10.7734 158.068 10.543C157.994 10.3125 157.883 10.1113 157.734 9.93945C157.59 9.76758 157.412 9.63477 157.201 9.54102C156.99 9.44336 156.748 9.39453 156.475 9.39453C156.111 9.39453 155.836 9.44336 155.648 9.54102C155.465 9.63867 155.275 9.77148 155.08 9.93945ZM166.09 13.2266C166.348 13.2266 166.586 13.1738 166.805 13.0684C167.023 12.9629 167.203 12.8184 167.344 12.6348C167.484 12.4473 167.564 12.2344 167.584 11.9961H168.615C168.596 12.3711 168.469 12.7207 168.234 13.0449C168.004 13.3652 167.701 13.625 167.326 13.8242C166.951 14.0195 166.539 14.1172 166.09 14.1172C165.613 14.1172 165.197 14.0332 164.842 13.8652C164.49 13.6973 164.197 13.4668 163.963 13.1738C163.732 12.8809 163.559 12.5449 163.441 12.166C163.328 11.7832 163.271 11.3789 163.271 10.9531V10.707C163.271 10.2812 163.328 9.87891 163.441 9.5C163.559 9.11719 163.732 8.7793 163.963 8.48633C164.197 8.19336 164.49 7.96289 164.842 7.79492C165.197 7.62695 165.613 7.54297 166.09 7.54297C166.586 7.54297 167.02 7.64453 167.391 7.84766C167.762 8.04688 168.053 8.32031 168.264 8.66797C168.479 9.01172 168.596 9.40234 168.615 9.83984H167.584C167.564 9.57812 167.49 9.3418 167.361 9.13086C167.236 8.91992 167.064 8.75195 166.846 8.62695C166.631 8.49805 166.379 8.43359 166.09 8.43359C165.758 8.43359 165.479 8.5 165.252 8.63281C165.029 8.76172 164.852 8.9375 164.719 9.16016C164.59 9.37891 164.496 9.62305 164.438 9.89258C164.383 10.1582 164.355 10.4297 164.355 10.707V10.9531C164.355 11.2305 164.383 11.5039 164.438 11.7734C164.492 12.043 164.584 12.2871 164.713 12.5059C164.846 12.7246 165.023 12.9004 165.246 13.0332C165.473 13.1621 165.754 13.2266 166.09 13.2266ZM169.547 10.9004V10.7656C169.547 10.3086 169.613 9.88477 169.746 9.49414C169.879 9.09961 170.07 8.75781 170.32 8.46875C170.57 8.17578 170.873 7.94922 171.229 7.78906C171.584 7.625 171.982 7.54297 172.424 7.54297C172.869 7.54297 173.27 7.625 173.625 7.78906C173.984 7.94922 174.289 8.17578 174.539 8.46875C174.793 8.75781 174.986 9.09961 175.119 9.49414C175.252 9.88477 175.318 10.3086 175.318 10.7656V10.9004C175.318 11.3574 175.252 11.7812 175.119 12.1719C174.986 12.5625 174.793 12.9043 174.539 13.1973C174.289 13.4863 173.986 13.7129 173.631 13.877C173.279 14.0371 172.881 14.1172 172.436 14.1172C171.99 14.1172 171.59 14.0371 171.234 13.877C170.879 13.7129 170.574 13.4863 170.32 13.1973C170.07 12.9043 169.879 12.5625 169.746 12.1719C169.613 11.7812 169.547 11.3574 169.547 10.9004ZM170.631 10.7656V10.9004C170.631 11.2168 170.668 11.5156 170.742 11.7969C170.816 12.0742 170.928 12.3203 171.076 12.5352C171.229 12.75 171.418 12.9199 171.645 13.0449C171.871 13.166 172.135 13.2266 172.436 13.2266C172.732 13.2266 172.992 13.166 173.215 13.0449C173.441 12.9199 173.629 12.75 173.777 12.5352C173.926 12.3203 174.037 12.0742 174.111 11.7969C174.189 11.5156 174.229 11.2168 174.229 10.9004V10.7656C174.229 10.4531 174.189 10.1582 174.111 9.88086C174.037 9.59961 173.924 9.35156 173.771 9.13672C173.623 8.91797 173.436 8.74609 173.209 8.62109C172.986 8.49609 172.725 8.43359 172.424 8.43359C172.127 8.43359 171.865 8.49609 171.639 8.62109C171.416 8.74609 171.229 8.91797 171.076 9.13672C170.928 9.35156 170.816 9.59961 170.742 9.88086C170.668 10.1582 170.631 10.4531 170.631 10.7656ZM177.756 8.91992V14H176.666V7.66016H177.697L177.756 8.91992ZM177.533 10.5898L177.029 10.5723C177.033 10.1387 177.09 9.73828 177.199 9.37109C177.309 9 177.471 8.67773 177.686 8.4043C177.9 8.13086 178.168 7.91992 178.488 7.77148C178.809 7.61914 179.18 7.54297 179.602 7.54297C179.898 7.54297 180.172 7.58594 180.422 7.67188C180.672 7.75391 180.889 7.88477 181.072 8.06445C181.256 8.24414 181.398 8.47461 181.5 8.75586C181.602 9.03711 181.652 9.37695 181.652 9.77539V14H180.568V9.82812C180.568 9.49609 180.512 9.23047 180.398 9.03125C180.289 8.83203 180.133 8.6875 179.93 8.59766C179.727 8.50391 179.488 8.45703 179.215 8.45703C178.895 8.45703 178.627 8.51367 178.412 8.62695C178.197 8.74023 178.025 8.89648 177.896 9.0957C177.768 9.29492 177.674 9.52344 177.615 9.78125C177.561 10.0352 177.533 10.3047 177.533 10.5898ZM181.641 9.99219L180.914 10.2148C180.918 9.86719 180.975 9.5332 181.084 9.21289C181.197 8.89258 181.359 8.60742 181.57 8.35742C181.785 8.10742 182.049 7.91016 182.361 7.76562C182.674 7.61719 183.031 7.54297 183.434 7.54297C183.773 7.54297 184.074 7.58789 184.336 7.67773C184.602 7.76758 184.824 7.90625 185.004 8.09375C185.188 8.27734 185.326 8.51367 185.42 8.80273C185.514 9.0918 185.561 9.43555 185.561 9.83398V14H184.471V9.82227C184.471 9.4668 184.414 9.19141 184.301 8.99609C184.191 8.79688 184.035 8.6582 183.832 8.58008C183.633 8.49805 183.395 8.45703 183.117 8.45703C182.879 8.45703 182.668 8.49805 182.484 8.58008C182.301 8.66211 182.146 8.77539 182.021 8.91992C181.896 9.06055 181.801 9.22266 181.734 9.40625C181.672 9.58984 181.641 9.78516 181.641 9.99219ZM189.832 14.1172C189.391 14.1172 188.99 14.043 188.631 13.8945C188.275 13.7422 187.969 13.5293 187.711 13.2559C187.457 12.9824 187.262 12.6582 187.125 12.2832C186.988 11.9082 186.92 11.498 186.92 11.0527V10.8066C186.92 10.291 186.996 9.83203 187.148 9.42969C187.301 9.02344 187.508 8.67969 187.77 8.39844C188.031 8.11719 188.328 7.9043 188.66 7.75977C188.992 7.61523 189.336 7.54297 189.691 7.54297C190.145 7.54297 190.535 7.62109 190.863 7.77734C191.195 7.93359 191.467 8.15234 191.678 8.43359C191.889 8.71094 192.045 9.03906 192.146 9.41797C192.248 9.79297 192.299 10.2031 192.299 10.6484V11.1348H187.564V10.25H191.215V10.168C191.199 9.88672 191.141 9.61328 191.039 9.34766C190.941 9.08203 190.785 8.86328 190.57 8.69141C190.355 8.51953 190.062 8.43359 189.691 8.43359C189.445 8.43359 189.219 8.48633 189.012 8.5918C188.805 8.69336 188.627 8.8457 188.479 9.04883C188.33 9.25195 188.215 9.5 188.133 9.79297C188.051 10.0859 188.01 10.4238 188.01 10.8066V11.0527C188.01 11.3535 188.051 11.6367 188.133 11.9023C188.219 12.1641 188.342 12.3945 188.502 12.5938C188.666 12.793 188.863 12.9492 189.094 13.0625C189.328 13.1758 189.594 13.2324 189.891 13.2324C190.273 13.2324 190.598 13.1543 190.863 12.998C191.129 12.8418 191.361 12.6328 191.561 12.3711L192.217 12.8926C192.08 13.0996 191.906 13.2969 191.695 13.4844C191.484 13.6719 191.225 13.8242 190.916 13.9414C190.611 14.0586 190.25 14.1172 189.832 14.1172ZM194.648 9.01367V14H193.564V7.66016H194.59L194.648 9.01367ZM194.391 10.5898L193.939 10.5723C193.943 10.1387 194.008 9.73828 194.133 9.37109C194.258 9 194.434 8.67773 194.66 8.4043C194.887 8.13086 195.156 7.91992 195.469 7.77148C195.785 7.61914 196.135 7.54297 196.518 7.54297C196.83 7.54297 197.111 7.58594 197.361 7.67188C197.611 7.75391 197.824 7.88672 198 8.07031C198.18 8.25391 198.316 8.49219 198.41 8.78516C198.504 9.07422 198.551 9.42773 198.551 9.8457V14H197.461V9.83398C197.461 9.50195 197.412 9.23633 197.314 9.03711C197.217 8.83398 197.074 8.6875 196.887 8.59766C196.699 8.50391 196.469 8.45703 196.195 8.45703C195.926 8.45703 195.68 8.51367 195.457 8.62695C195.238 8.74023 195.049 8.89648 194.889 9.0957C194.732 9.29492 194.609 9.52344 194.52 9.78125C194.434 10.0352 194.391 10.3047 194.391 10.5898ZM202.852 7.66016V8.49219H199.424V7.66016H202.852ZM200.584 6.11914H201.668V12.4297C201.668 12.6445 201.701 12.8066 201.768 12.916C201.834 13.0254 201.92 13.0977 202.025 13.1328C202.131 13.168 202.244 13.1855 202.365 13.1855C202.455 13.1855 202.549 13.1777 202.646 13.1621C202.748 13.1426 202.824 13.127 202.875 13.1152L202.881 14C202.795 14.0273 202.682 14.0527 202.541 14.0762C202.404 14.1035 202.238 14.1172 202.043 14.1172C201.777 14.1172 201.533 14.0645 201.311 13.959C201.088 13.8535 200.91 13.6777 200.777 13.4316C200.648 13.1816 200.584 12.8457 200.584 12.4238V6.11914ZM207.861 12.916V9.65234C207.861 9.40234 207.811 9.18555 207.709 9.00195C207.611 8.81445 207.463 8.66992 207.264 8.56836C207.064 8.4668 206.818 8.41602 206.525 8.41602C206.252 8.41602 206.012 8.46289 205.805 8.55664C205.602 8.65039 205.441 8.77344 205.324 8.92578C205.211 9.07812 205.154 9.24219 205.154 9.41797H204.07C204.07 9.19141 204.129 8.9668 204.246 8.74414C204.363 8.52148 204.531 8.32031 204.75 8.14062C204.973 7.95703 205.238 7.8125 205.547 7.70703C205.859 7.59766 206.207 7.54297 206.59 7.54297C207.051 7.54297 207.457 7.62109 207.809 7.77734C208.164 7.93359 208.441 8.16992 208.641 8.48633C208.844 8.79883 208.945 9.19141 208.945 9.66406V12.6172C208.945 12.8281 208.963 13.0527 208.998 13.291C209.037 13.5293 209.094 13.7344 209.168 13.9062V14H208.037C207.982 13.875 207.939 13.709 207.908 13.502C207.877 13.291 207.861 13.0957 207.861 12.916ZM208.049 10.1562L208.061 10.918H206.965C206.656 10.918 206.381 10.9434 206.139 10.9941C205.896 11.041 205.693 11.1133 205.529 11.2109C205.365 11.3086 205.24 11.4316 205.154 11.5801C205.068 11.7246 205.025 11.8945 205.025 12.0898C205.025 12.2891 205.07 12.4707 205.16 12.6348C205.25 12.7988 205.385 12.9297 205.564 13.0273C205.748 13.1211 205.973 13.168 206.238 13.168C206.57 13.168 206.863 13.0977 207.117 12.957C207.371 12.8164 207.572 12.6445 207.721 12.4414C207.873 12.2383 207.955 12.041 207.967 11.8496L208.43 12.3711C208.402 12.5352 208.328 12.7168 208.207 12.916C208.086 13.1152 207.924 13.3066 207.721 13.4902C207.521 13.6699 207.283 13.8203 207.006 13.9414C206.732 14.0586 206.424 14.1172 206.08 14.1172C205.65 14.1172 205.273 14.0332 204.949 13.8652C204.629 13.6973 204.379 13.4727 204.199 13.1914C204.023 12.9062 203.936 12.5879 203.936 12.2363C203.936 11.8965 204.002 11.5977 204.135 11.3398C204.268 11.0781 204.459 10.8613 204.709 10.6895C204.959 10.5137 205.26 10.3809 205.611 10.291C205.963 10.2012 206.355 10.1562 206.789 10.1562H208.049ZM206.109 6.72266L207.246 5H208.553L206.982 6.72266H206.109ZM211.734 8.65625V14H210.65V7.66016H211.705L211.734 8.65625ZM213.715 7.625L213.709 8.63281C213.619 8.61328 213.533 8.60156 213.451 8.59766C213.373 8.58984 213.283 8.58594 213.182 8.58594C212.932 8.58594 212.711 8.625 212.52 8.70312C212.328 8.78125 212.166 8.89062 212.033 9.03125C211.9 9.17188 211.795 9.33984 211.717 9.53516C211.643 9.72656 211.594 9.9375 211.57 10.168L211.266 10.3438C211.266 9.96094 211.303 9.60156 211.377 9.26562C211.455 8.92969 211.574 8.63281 211.734 8.375C211.895 8.11328 212.098 7.91016 212.344 7.76562C212.594 7.61719 212.891 7.54297 213.234 7.54297C213.312 7.54297 213.402 7.55273 213.504 7.57227C213.605 7.58789 213.676 7.60547 213.715 7.625ZM215.895 7.66016V14H214.805V7.66016H215.895ZM214.723 5.97852C214.723 5.80273 214.775 5.6543 214.881 5.5332C214.99 5.41211 215.15 5.35156 215.361 5.35156C215.568 5.35156 215.727 5.41211 215.836 5.5332C215.949 5.6543 216.006 5.80273 216.006 5.97852C216.006 6.14648 215.949 6.29102 215.836 6.41211C215.727 6.5293 215.568 6.58789 215.361 6.58789C215.15 6.58789 214.99 6.5293 214.881 6.41211C214.775 6.29102 214.723 6.14648 214.723 5.97852ZM217.348 10.9004V10.7656C217.348 10.3086 217.414 9.88477 217.547 9.49414C217.68 9.09961 217.871 8.75781 218.121 8.46875C218.371 8.17578 218.674 7.94922 219.029 7.78906C219.385 7.625 219.783 7.54297 220.225 7.54297C220.67 7.54297 221.07 7.625 221.426 7.78906C221.785 7.94922 222.09 8.17578 222.34 8.46875C222.594 8.75781 222.787 9.09961 222.92 9.49414C223.053 9.88477 223.119 10.3086 223.119 10.7656V10.9004C223.119 11.3574 223.053 11.7812 222.92 12.1719C222.787 12.5625 222.594 12.9043 222.34 13.1973C222.09 13.4863 221.787 13.7129 221.432 13.877C221.08 14.0371 220.682 14.1172 220.236 14.1172C219.791 14.1172 219.391 14.0371 219.035 13.877C218.68 13.7129 218.375 13.4863 218.121 13.1973C217.871 12.9043 217.68 12.5625 217.547 12.1719C217.414 11.7812 217.348 11.3574 217.348 10.9004ZM218.432 10.7656V10.9004C218.432 11.2168 218.469 11.5156 218.543 11.7969C218.617 12.0742 218.729 12.3203 218.877 12.5352C219.029 12.75 219.219 12.9199 219.445 13.0449C219.672 13.166 219.936 13.2266 220.236 13.2266C220.533 13.2266 220.793 13.166 221.016 13.0449C221.242 12.9199 221.43 12.75 221.578 12.5352C221.727 12.3203 221.838 12.0742 221.912 11.7969C221.99 11.5156 222.029 11.2168 222.029 10.9004V10.7656C222.029 10.4531 221.99 10.1582 221.912 9.88086C221.838 9.59961 221.725 9.35156 221.572 9.13672C221.424 8.91797 221.236 8.74609 221.01 8.62109C220.787 8.49609 220.525 8.43359 220.225 8.43359C219.928 8.43359 219.666 8.49609 219.439 8.62109C219.217 8.74609 219.029 8.91797 218.877 9.13672C218.729 9.35156 218.617 9.59961 218.543 9.88086C218.469 10.1582 218.432 10.4531 218.432 10.7656ZM228.17 12.3184C228.17 12.1621 228.135 12.0176 228.064 11.8848C227.998 11.748 227.859 11.625 227.648 11.5156C227.441 11.4023 227.129 11.3047 226.711 11.2227C226.359 11.1484 226.041 11.0605 225.756 10.959C225.475 10.8574 225.234 10.7344 225.035 10.5898C224.84 10.4453 224.689 10.2754 224.584 10.0801C224.479 9.88477 224.426 9.65625 224.426 9.39453C224.426 9.14453 224.48 8.9082 224.59 8.68555C224.703 8.46289 224.861 8.26562 225.064 8.09375C225.271 7.92188 225.52 7.78711 225.809 7.68945C226.098 7.5918 226.42 7.54297 226.775 7.54297C227.283 7.54297 227.717 7.63281 228.076 7.8125C228.436 7.99219 228.711 8.23242 228.902 8.5332C229.094 8.83008 229.189 9.16016 229.189 9.52344H228.105C228.105 9.34766 228.053 9.17773 227.947 9.01367C227.846 8.8457 227.695 8.70703 227.496 8.59766C227.301 8.48828 227.061 8.43359 226.775 8.43359C226.475 8.43359 226.23 8.48047 226.043 8.57422C225.859 8.66406 225.725 8.7793 225.639 8.91992C225.557 9.06055 225.516 9.20898 225.516 9.36523C225.516 9.48242 225.535 9.58789 225.574 9.68164C225.617 9.77148 225.691 9.85547 225.797 9.93359C225.902 10.0078 226.051 10.0781 226.242 10.1445C226.434 10.2109 226.678 10.2773 226.975 10.3438C227.494 10.4609 227.922 10.6016 228.258 10.7656C228.594 10.9297 228.844 11.1309 229.008 11.3691C229.172 11.6074 229.254 11.8965 229.254 12.2363C229.254 12.5137 229.195 12.7676 229.078 12.998C228.965 13.2285 228.799 13.4277 228.58 13.5957C228.365 13.7598 228.107 13.8887 227.807 13.9824C227.51 14.0723 227.176 14.1172 226.805 14.1172C226.246 14.1172 225.773 14.0176 225.387 13.8184C225 13.6191 224.707 13.3613 224.508 13.0449C224.309 12.7285 224.209 12.3945 224.209 12.043H225.299C225.314 12.3398 225.4 12.5762 225.557 12.752C225.713 12.9238 225.904 13.0469 226.131 13.1211C226.357 13.1914 226.582 13.2266 226.805 13.2266C227.102 13.2266 227.35 13.1875 227.549 13.1094C227.752 13.0312 227.906 12.9238 228.012 12.7871C228.117 12.6504 228.17 12.4941 228.17 12.3184Z" fill="white" fill-opacity="0.6"/>
<path d="M40.2715 5.42188V14H39.1875V6.77539L37.002 7.57227V6.59375L40.1016 5.42188H40.2715ZM49.0488 13.1094V14H43.4648V13.2207L46.2598 10.1094C46.6035 9.72656 46.8691 9.40234 47.0566 9.13672C47.248 8.86719 47.3809 8.62695 47.4551 8.41602C47.5332 8.20117 47.5723 7.98242 47.5723 7.75977C47.5723 7.47852 47.5137 7.22461 47.3965 6.99805C47.2832 6.76758 47.1152 6.58398 46.8926 6.44727C46.6699 6.31055 46.4004 6.24219 46.084 6.24219C45.7051 6.24219 45.3887 6.31641 45.1348 6.46484C44.8848 6.60938 44.6973 6.8125 44.5723 7.07422C44.4473 7.33594 44.3848 7.63672 44.3848 7.97656H43.3008C43.3008 7.49609 43.4062 7.05664 43.6172 6.6582C43.8281 6.25977 44.1406 5.94336 44.5547 5.70898C44.9688 5.4707 45.4785 5.35156 46.084 5.35156C46.623 5.35156 47.084 5.44727 47.4668 5.63867C47.8496 5.82617 48.1426 6.0918 48.3457 6.43555C48.5527 6.77539 48.6562 7.17383 48.6562 7.63086C48.6562 7.88086 48.6133 8.13477 48.5273 8.39258C48.4453 8.64648 48.3301 8.90039 48.1816 9.1543C48.0371 9.4082 47.8672 9.6582 47.6719 9.9043C47.4805 10.1504 47.2754 10.3926 47.0566 10.6309L44.7715 13.1094H49.0488ZM55.9746 11.1289V12.0195H49.8105V11.3809L53.6309 5.46875H54.5156L53.5664 7.17969L51.041 11.1289H55.9746ZM54.7852 5.46875V14H53.7012V5.46875H54.7852Z" fill="white" fill-opacity="0.6"/>
<circle cx="8" cy="10" r="8" fill="#378FE9"/>
<circle cx="16" cy="10" r="8" fill="#6DAE4F"/>
<circle cx="24" cy="10" r="8" fill="#DF704D"/>
</svg>
